<mxfile host="app.diagrams.net" modified="2024-01-16T08:35:04.906Z" agent="Mozilla/5.0 (Macintosh; Intel Mac OS X 10_15_7) AppleWebKit/537.36 (KHTML, like Gecko) Chrome/120.0.0.0 Safari/537.36" version="22.1.18" etag="3xP-dG9WgsmrtTp24en_" type="github">
  <diagram name="第 1 页" id="uERv63rUHmXZXkdW-QQu">
    <mxGraphModel>
      <root>
        <mxCell id="0" />
        <mxCell id="1" parent="0" />
      </root>
    </mxGraphModel>
  </diagram>
</mxfile>
